<svg width="128" height="144" viewBox="0 0 128 144" fill="none" xmlns="http://www.w3.org/2000/svg">
<path d="M1.60675 118.601C1.43621 118.819 1.47402 119.133 1.69121 119.303L5.23046 122.083C5.44765 122.253 5.76196 122.215 5.93251 121.998C6.10305 121.781 6.06524 121.467 5.84805 121.296L2.70204 118.826L5.1724 115.68C5.34294 115.463 5.30513 115.148 5.08794 114.978C4.87075 114.807 4.55644 114.845 4.3859 115.062L1.60675 118.601ZM98.6876 2.07789C98.7653 2.57139 98.84 3.06389 98.9116 3.55536L99.9011 3.41112C99.8289 2.91586 99.7537 2.4196 99.6754 1.92234L98.6876 2.07789ZM99.3051 6.49185C99.4256 7.47817 99.5338 8.46022 99.6297 9.4379L100.625 9.34027C100.528 8.35463 100.419 7.3647 100.298 6.37056L99.3051 6.49185ZM99.8829 12.3872C99.9558 13.3786 100.016 14.3653 100.063 15.3472L101.062 15.2989C101.014 14.3086 100.954 13.3136 100.88 12.3139L99.8829 12.3872ZM100.168 18.3018C100.191 19.2961 100.2 20.2853 100.196 21.2693L101.196 21.2732C101.2 20.2803 101.191 19.2823 101.168 18.2792L100.168 18.3018ZM100.145 24.2207C100.114 25.2154 100.07 26.2046 100.012 27.1881L101.01 27.2467C101.069 26.2539 101.113 25.2555 101.144 24.2516L100.145 24.2207ZM99.7977 30.1314C99.7114 31.1219 99.6112 32.1064 99.4971 33.0848L100.49 33.2006C100.606 32.2125 100.707 31.2183 100.794 30.2182L99.7977 30.1314ZM99.1118 36.0153C98.9679 36.9963 98.8099 37.9708 98.6379 38.9388L99.6225 39.1137C99.7963 38.1358 99.9559 37.1513 100.101 36.1604L99.1118 36.0153ZM98.0755 41.8447C97.8726 42.8124 97.6554 43.7733 97.424 44.7272L98.3958 44.963C98.6297 43.9988 98.8492 43.0278 99.0542 42.0499L98.0755 41.8447ZM96.6798 47.5954C96.4165 48.5472 96.1387 49.4919 95.8466 50.429L96.8013 50.7266C97.0966 49.7791 97.3774 48.8242 97.6436 47.862L96.6798 47.5954ZM94.919 53.2423C94.5942 54.1754 94.2548 55.1009 93.9009 56.0184L94.834 56.3782C95.1918 55.4503 95.535 54.5145 95.8634 53.571L94.919 53.2423ZM92.791 58.7595C92.4049 59.669 92.0041 60.5703 91.5889 61.4634L92.4957 61.885C92.9157 60.9817 93.3209 60.0701 93.7115 59.1503L92.791 58.7595ZM90.2976 64.1221C89.8513 65.0028 89.3904 65.8749 88.9151 66.7385L89.7912 67.2206C90.272 66.3472 90.7381 65.4649 91.1896 64.5742L90.2976 64.1221ZM87.4454 69.3044C86.9408 70.1516 86.4218 70.99 85.8886 71.8194L86.7298 72.3602C87.2691 71.5212 87.7941 70.6731 88.3046 69.8161L87.4454 69.3044ZM84.2476 74.2793C83.6867 75.0898 83.1117 75.8913 82.5228 76.6836L83.3254 77.2801C83.921 76.4788 84.5026 75.6682 85.0699 74.8483L84.2476 74.2793ZM80.7194 79.0262C80.1057 79.7962 79.4783 80.557 78.8373 81.3083L79.5981 81.9573C80.2463 81.1975 80.8807 80.4282 81.5014 79.6495L80.7194 79.0262ZM76.8795 83.5274C76.217 84.2538 75.5411 84.9709 74.8521 85.6784L75.5685 86.3761C76.2651 85.6608 76.9484 84.9358 77.6184 84.2013L76.8795 83.5274ZM72.7506 87.7675C72.0431 88.4484 71.3228 89.1199 70.5898 89.7817L71.26 90.5239C72.0008 89.855 72.7288 89.1763 73.444 88.488L72.7506 87.7675ZM68.3615 91.7311C67.6115 92.3668 66.8492 92.993 66.0747 93.6094L66.6974 94.3918C67.4799 93.769 68.2502 93.1364 69.008 92.494L68.3615 91.7311ZM63.7332 95.4158C62.9444 96.0056 62.1439 96.5858 61.3316 97.1563L61.9064 97.9746C62.7267 97.3984 63.5353 96.8124 64.332 96.2167L63.7332 95.4158ZM58.8905 98.8183C58.0683 99.3609 57.2348 99.894 56.3901 100.417L56.9169 101.267C57.7696 100.739 58.6111 100.201 59.4413 99.6529L58.8905 98.8183ZM53.8581 101.938C53.0078 102.433 52.1469 102.918 51.2753 103.394L51.7546 104.272C52.634 103.792 53.5029 103.302 54.3611 102.802L53.8581 101.938ZM48.6596 104.778C47.7851 105.226 46.9006 105.664 46.0061 106.093L46.4387 106.995C47.3409 106.562 48.2332 106.12 49.1154 105.668L48.6596 104.778ZM43.3175 107.342C42.4224 107.744 41.5177 108.137 40.6036 108.52L40.9907 109.442C41.9123 109.055 42.8245 108.659 43.7272 108.254L43.3175 107.342ZM37.8527 109.636C36.9399 109.994 36.0182 110.342 35.0877 110.682L35.4306 111.621C36.3684 111.279 37.2974 110.928 38.2175 110.567L37.8527 109.636ZM32.2843 111.669C31.3566 111.984 30.4205 112.29 29.4761 112.587L29.7763 113.541C30.7277 113.241 31.6708 112.933 32.6055 112.616L32.2843 111.669ZM26.6294 113.449C25.6891 113.722 24.7409 113.987 23.7848 114.244L24.0439 115.21C25.0067 114.951 25.9617 114.684 26.9088 114.409L26.6294 113.449ZM20.9035 114.985C19.9524 115.219 18.9939 115.445 18.028 115.662L18.2477 116.638C19.22 116.419 20.185 116.192 21.1426 115.956L20.9035 114.985ZM15.1199 116.287C14.1597 116.483 13.1924 116.672 12.2181 116.852L12.4 117.835C13.3804 117.654 14.3539 117.464 15.3204 117.267L15.1199 116.287ZM9.29048 117.365C8.32221 117.525 7.34729 117.678 6.36579 117.822L6.51141 118.812C7.49883 118.666 8.4797 118.513 9.45396 118.351L9.29048 117.365ZM3.42514 118.229C2.93179 118.292 2.43683 118.354 1.94028 118.414L2.05971 119.407C2.55915 119.347 3.057 119.284 3.55325 119.22L3.42514 118.229ZM1.2135 118.293C0.872416 118.727 0.948037 119.356 1.38241 119.697L8.46092 125.255C8.89529 125.596 9.52393 125.52 9.86501 125.086C10.2061 124.652 10.1305 124.023 9.6961 123.682L3.40409 118.741L8.34479 112.449C8.68589 112.015 8.61025 111.386 8.17589 111.045C7.74152 110.704 7.11288 110.78 6.7718 111.214L1.2135 118.293ZM98.1937 2.15567C98.2711 2.64729 98.3455 3.1379 98.4168 3.62748L100.396 3.339C100.323 2.84184 100.248 2.34369 100.169 1.84456L98.1937 2.15567ZM98.8088 6.5525C98.9288 7.53491 99.0366 8.51301 99.1321 9.48672L101.123 9.29145C101.025 8.30184 100.916 7.30796 100.794 6.30992L98.8088 6.5525ZM99.3842 12.4239C99.4568 13.4111 99.5167 14.3936 99.5639 15.3713L101.562 15.2748C101.514 14.2803 101.453 13.2811 101.379 12.2773L99.3842 12.4239ZM99.6683 18.313C99.6906 19.303 99.6998 20.2878 99.696 21.2674L101.696 21.2752C101.7 20.2778 101.691 19.2754 101.668 18.2679L99.6683 18.313ZM99.6452 24.2053C99.6146 25.1954 99.5705 26.1799 99.513 27.1588L101.51 27.276C101.568 26.2785 101.613 25.2755 101.644 24.267L99.6452 24.2053ZM99.2996 30.088C99.2137 31.0737 99.114 32.0534 99.0005 33.027L100.987 33.2585C101.103 32.2655 101.204 31.2665 101.292 30.2616L99.2996 30.088ZM98.617 35.9428C98.4739 36.9188 98.3168 37.8883 98.1457 38.8513L100.115 39.2012C100.289 38.2182 100.45 37.2288 100.596 36.233L98.617 35.9428ZM97.5861 41.7421C97.3843 42.7047 97.1682 43.6605 96.9381 44.6094L98.8817 45.0808C99.1168 44.1116 99.3375 43.1354 99.5435 42.1525L97.5861 41.7421ZM96.1979 47.4621C95.936 48.4088 95.6598 49.3482 95.3692 50.2803L97.2786 50.8754C97.5756 49.9227 97.8579 48.9627 98.1255 47.9953L96.1979 47.4621ZM94.4468 53.0779C94.1238 54.0059 93.7863 54.9261 93.4344 55.8385L95.3005 56.5581C95.6603 55.6251 96.0054 54.6841 96.3356 53.7353L94.4468 53.0779ZM92.3307 58.5641C91.9468 59.4684 91.5484 60.3646 91.1355 61.2526L92.9491 62.0958C93.3714 61.1874 93.779 60.2707 94.1717 59.3457L92.3307 58.5641ZM89.8516 63.8961C89.4078 64.7717 88.9496 65.6388 88.4771 66.4974L90.2293 67.4617C90.7127 66.5833 91.1815 65.696 91.6356 64.8002L89.8516 63.8961ZM87.0159 69.0485C86.5141 69.8908 85.9981 70.7244 85.468 71.5491L87.1504 72.6305C87.6928 71.7868 88.2208 70.9339 88.7341 70.072L87.0159 69.0485ZM83.8364 73.9948C83.2787 74.8007 82.7071 75.5976 82.1215 76.3853L83.7267 77.5784C84.3257 76.7726 84.9105 75.9573 85.481 75.1328L83.8364 73.9948ZM80.3283 78.7146C79.7182 79.4802 79.0943 80.2367 78.4569 80.9838L79.9784 82.2818C80.6302 81.5178 81.2683 80.7442 81.8924 79.9611L80.3283 78.7146ZM76.5101 83.1905C75.8512 83.9129 75.1791 84.626 74.4939 85.3296L75.9267 86.7249C76.6271 86.0058 77.3142 85.2768 77.9878 84.5382L76.5101 83.1905ZM72.4038 87.4072C71.7002 88.0845 70.9838 88.7523 70.2547 89.4106L71.5951 90.895C72.3398 90.2225 73.0717 89.5402 73.7907 88.8482L72.4038 87.4072ZM68.0382 91.3497C67.2921 91.9821 66.5338 92.6049 65.7633 93.2182L67.0088 94.783C67.7953 94.157 68.5695 93.5211 69.3313 92.8754L68.0382 91.3497ZM63.4338 95.0154C62.649 95.6022 61.8525 96.1795 61.0442 96.7471L62.1938 98.3838C63.0181 97.8048 63.8307 97.2159 64.6314 96.6172L63.4338 95.0154ZM58.6151 98.401C57.7969 98.9409 56.9674 99.4714 56.1267 99.9924L57.1803 101.692C58.037 101.162 58.8825 100.621 59.7167 100.07L58.6151 98.401ZM53.6066 101.506C52.7603 101.999 51.9033 102.482 51.0357 102.955L51.9942 104.711C52.8776 104.228 53.7504 103.736 54.6126 103.235L53.6066 101.506ZM48.4317 104.333C47.5611 104.779 46.6804 105.215 45.7898 105.643L46.655 107.446C47.5611 107.011 48.4572 106.567 49.3433 106.113L48.4317 104.333ZM43.1127 106.885C42.2213 107.286 41.3204 107.677 40.4101 108.059L41.1842 109.903C42.1096 109.515 43.0255 109.117 43.932 108.71L43.1127 106.885ZM37.6703 109.171C36.7612 109.527 35.8432 109.874 34.9162 110.212L35.602 112.091C36.5435 111.747 37.4761 111.395 38.3998 111.033L37.6703 109.171ZM32.1236 111.195C31.1995 111.509 30.2669 111.814 29.326 112.11L29.9264 114.018C30.8813 113.717 31.8279 113.408 32.7662 113.089L32.1236 111.195ZM26.4897 112.969C25.5528 113.241 24.608 113.505 23.6553 113.761L24.1735 115.693C25.1396 115.433 26.098 115.165 27.0485 114.889L26.4897 112.969ZM20.7839 114.499C19.8362 114.733 18.8809 114.958 17.9182 115.174L18.3575 117.126C19.3331 116.906 20.3013 116.678 21.2621 116.441L20.7839 114.499ZM15.0197 115.797C14.0626 115.993 13.0984 116.181 12.1272 116.36L12.4909 118.327C13.4744 118.145 14.451 117.955 15.4206 117.756L15.0197 115.797ZM9.20874 116.872C8.24346 117.032 7.27152 117.184 6.29298 117.328L6.58422 119.306C7.5746 119.161 8.55845 119.007 9.53569 118.845L9.20874 116.872ZM3.36108 117.733C2.86918 117.796 2.37567 117.858 1.88056 117.917L2.11944 119.903C2.62032 119.843 3.1196 119.78 3.61731 119.716L3.36108 117.733Z" fill="#001687"/>
</svg>
