<svg width="20" height="20" viewBox="0 0 20 20" fill="none" xmlns="http://www.w3.org/2000/svg">
<path d="M16.25 18.125H16.1438C3.8625 17.4187 2.11875 7.05625 1.875 3.89375C1.85536 3.64786 1.88443 3.40052 1.96055 3.16588C2.03667 2.93125 2.15833 2.71394 2.31858 2.52641C2.47882 2.33888 2.67449 2.1848 2.89438 2.07302C3.11427 1.96124 3.35406 1.89395 3.6 1.875H7.04375C7.2941 1.87476 7.53875 1.94969 7.74602 2.0901C7.95329 2.23051 8.11362 2.42992 8.20625 2.6625L9.15625 5C9.24772 5.22722 9.27042 5.4763 9.22153 5.71631C9.17264 5.95631 9.05432 6.17667 8.88125 6.35L7.55 7.69375C7.75795 8.87547 8.32387 9.96479 9.17119 10.8143C10.0185 11.6639 11.1063 12.2327 12.2875 12.4438L13.6438 11.1C13.8197 10.9288 14.0421 10.8133 14.2833 10.7677C14.5245 10.7221 14.7738 10.7486 15 10.8438L17.3563 11.7875C17.5853 11.8831 17.7808 12.0446 17.9177 12.2517C18.0546 12.4587 18.1268 12.7018 18.125 12.95V16.25C18.125 16.7473 17.9275 17.2242 17.5758 17.5758C17.2242 17.9275 16.7473 18.125 16.25 18.125ZM3.75 3.125C3.58424 3.125 3.42527 3.19085 3.30806 3.30806C3.19085 3.42527 3.125 3.58424 3.125 3.75V3.8C3.4125 7.5 5.25625 16.25 16.2125 16.875C16.2946 16.8801 16.3769 16.8689 16.4547 16.8421C16.5325 16.8153 16.6042 16.7734 16.6657 16.7188C16.7273 16.6642 16.7775 16.598 16.8134 16.524C16.8493 16.45 16.8702 16.3696 16.875 16.2875V12.95L14.5188 12.0062L12.725 13.7875L12.425 13.75C6.9875 13.0688 6.25 7.63125 6.25 7.575L6.2125 7.275L7.9875 5.48125L7.05 3.125H3.75Z" fill="white"/>
</svg>
